<?xml version="1.0" standalone="no"?>
<!DOCTYPE svg PUBLIC "-//W3C//DTD SVG 20010904//EN"
 "http://www.w3.org/TR/2001/REC-SVG-20010904/DTD/svg10.dtd">
<svg version="1.0" xmlns="http://www.w3.org/2000/svg"
 width="300.000000pt" height="170.000000pt" viewBox="0 0 300.000000 170.000000"
 preserveAspectRatio="xMidYMid meet">
<metadata>
Created by potrace 1.10, written by Peter Selinger 2001-2011
</metadata>
<g transform="translate(0.000000,170.000000) scale(0.050000,-0.050000)"
fill="#1f9059" stroke="none">
<path d="M1167 3339 c-169 -34 -353 -191 -377 -322 -6 -37 -9 -460 -6 -940 l6
-873 63 -87 c40 -56 103 -108 178 -147 l116 -60 1047 0 c917 0 1046 -4 1045
-30 0 -16 -35 -196 -77 -400 -112 -542 -147 -542 649 4 l599 411 200 9 c290
14 449 98 537 283 49 103 50 1781 1 1884 -43 92 -187 220 -281 252 -90 30
-3555 46 -3700 16z m3617 -140 c248 -69 256 -104 256 -1072 0 -1066 1 -1064
-457 -1087 l-233 -11 -430 -297 c-236 -164 -477 -332 -535 -375 -124 -93 -122
-110 -35 302 50 238 63 335 48 354 -17 20 -256 27 -1135 31 -1495 8 -1343
-114 -1343 1085 0 896 -1 888 106 988 111 103 76 101 1944 102 1138 1 1766 -6
1814 -20z"/>
<path d="M2334 2338 l4 -702 152 0 153 0 3 702 4 702 -160 0 -160 0 4 -702z"/>
<path d="M1120 2313 c0 -366 4 -670 8 -675 41 -41 789 16 875 67 271 159 255
592 -24 648 l-55 11 85 83 c189 183 119 441 -139 511 -44 12 -231 22 -415 22
l-335 0 0 -667z m579 402 c163 -83 50 -275 -162 -275 l-77 0 0 150 0 150 95 0
c52 0 117 -12 144 -25z m68 -517 c196 -90 91 -302 -155 -315 l-152 -7 0 172 0
172 129 0 c71 0 151 -10 178 -22z"/>
<path d="M3130 2661 c-488 -119 -478 -924 13 -1042 383 -92 665 128 667 521 1
394 -289 616 -680 521z m295 -262 c127 -155 81 -507 -72 -558 -167 -55 -243
40 -243 303 l0 199 68 61 c79 71 186 68 247 -5z"/>
<path d="M4129 2642 c-211 -96 -314 -430 -225 -728 74 -245 350 -336 590 -194
l71 41 -14 -75 c-37 -196 -183 -251 -448 -168 -146 45 -134 54 -126 -105 l6
-131 114 -15 c358 -50 595 15 698 189 l55 94 6 554 6 554 -146 -4 c-80 -2
-152 -12 -159 -22 -7 -10 -49 -4 -95 15 -108 43 -232 41 -333 -5z m394 -212
c45 -17 30 -471 -16 -505 -146 -106 -307 7 -307 215 0 243 134 362 323 290z"/>
</g>
</svg>
