<?xml version="1.0" standalone="no"?>
<!DOCTYPE svg PUBLIC "-//W3C//DTD SVG 20010904//EN"
 "http://www.w3.org/TR/2001/REC-SVG-20010904/DTD/svg10.dtd">
<svg version="1.0" xmlns="http://www.w3.org/2000/svg"
 width="900.000000pt" height="354.000000pt" viewBox="0 0 900.000000 354.000000"
 preserveAspectRatio="xMidYMid meet">
<metadata>
Created by potrace 1.10, written by Peter Selinger 2001-2011
</metadata>
<g transform="translate(0.000000,354.000000) scale(0.100000,-0.100000)"
fill="#1f9059" stroke="none">
<path d="M495 3360 c-45 -50 -68 -270 -39 -381 l18 -68 -38 -48 c-48 -61 -109
-191 -127 -268 -27 -117 -16 -335 26 -500 34 -135 131 -269 260 -357 102 -70
296 -136 450 -154 31 -4 58 -10 60 -15 3 -4 -12 -28 -34 -53 -21 -24 -47 -66
-57 -93 -21 -59 -38 -79 -70 -87 -19 -5 -24 -11 -19 -26 7 -22 -13 -28 -32 -9
-18 18 -57 6 -63 -19 -6 -28 -25 -29 -24 -1 1 20 -28 33 -62 28 -11 -2 -33 5
-51 14 -18 9 -37 17 -43 17 -6 0 -34 23 -62 50 -28 28 -55 50 -60 50 -4 0 -8
8 -8 18 0 11 -9 27 -20 37 -20 18 -21 18 -35 -1 -13 -16 -16 -17 -25 -4 -7 11
-5 17 10 24 11 5 20 15 20 22 0 15 -43 29 -59 19 -19 -11 -32 5 -21 26 9 16 7
21 -15 29 -14 5 -25 15 -25 21 0 6 23 33 52 60 l52 49 -41 40 c-40 40 -43 41
-99 38 -55 -3 -59 -5 -59 -28 0 -30 -4 -34 -29 -24 -21 8 -37 -11 -28 -35 3
-9 21 -30 41 -47 l35 -31 -27 -18 c-35 -23 -34 -38 5 -67 83 -61 134 -124 187
-231 46 -94 61 -114 109 -153 87 -68 124 -78 287 -79 l140 0 3 -158 c2 -149 1
-159 -21 -200 -13 -23 -43 -57 -68 -76 -56 -42 -66 -59 -46 -78 38 -38 209 0
264 59 42 45 46 71 47 338 1 227 3 259 19 283 9 15 22 27 27 27 14 0 13 -440
-1 -555 -8 -72 -16 -98 -39 -131 -37 -54 -44 -79 -30 -104 10 -19 17 -21 53
-15 48 8 120 53 157 97 56 68 59 86 59 426 1 274 3 313 17 319 8 3 19 2 24 -3
5 -5 10 -153 12 -329 4 -302 5 -322 25 -360 48 -91 180 -173 233 -145 28 15
26 61 -5 90 -48 45 -56 100 -62 413 -5 252 -4 287 10 287 8 0 22 -18 31 -40
13 -33 16 -83 16 -281 0 -220 2 -243 20 -279 34 -67 171 -127 252 -111 26 5
34 12 36 33 3 22 -4 32 -37 53 -23 14 -53 44 -68 67 l-28 41 -6 291 c-3 160
-11 305 -16 321 -18 52 -51 109 -83 143 -17 17 -29 36 -26 41 3 4 34 11 68 14
220 20 450 121 549 239 107 128 130 197 153 454 24 282 -16 444 -151 612 -40
50 -42 56 -35 95 4 23 7 89 6 147 -1 133 -31 236 -71 246 -49 13 -252 -61
-380 -139 l-65 -39 -82 16 c-201 40 -484 36 -685 -9 l-74 -16 -56 34 c-75 46
-188 103 -231 116 -19 6 -57 17 -84 26 -65 20 -89 19 -111 -5z m830 -847 c122
-4 251 -1 360 7 260 20 357 -3 454 -105 69 -73 102 -144 108 -235 5 -73 -9
-204 -26 -238 -4 -9 -16 -34 -26 -54 -38 -79 -148 -161 -266 -197 -156 -48
-732 -54 -921 -10 -101 24 -128 33 -186 61 -35 18 -85 51 -111 74 -120 108
-166 339 -97 490 27 60 113 151 167 179 57 31 146 44 254 39 55 -2 185 -7 290
-11z m-825 -1088 c0 -8 -4 -15 -10 -15 -5 0 -10 7 -10 15 0 8 5 15 10 15 6 0
10 -7 10 -15z m70 -65 c0 -5 -9 -10 -20 -10 -11 0 -20 5 -20 10 0 6 9 10 20
10 11 0 20 -4 20 -10z m170 -91 c0 -5 -7 -9 -15 -9 -15 0 -20 12 -9 23 8 8 24
-1 24 -14z"/>
<path d="M911 2259 c-65 -64 -64 -184 2 -256 63 -70 168 31 154 148 -9 72 -58
138 -104 139 -12 0 -35 -14 -52 -31z"/>
<path d="M1857 2270 c-27 -21 -57 -96 -57 -141 0 -41 27 -108 52 -129 43 -36
92 -23 128 35 19 30 22 47 18 110 -3 69 -6 77 -38 110 -39 40 -66 44 -103 15z"/>
<path d="M1385 1931 c-11 -19 15 -52 38 -49 16 2 22 10 22 28 0 20 -6 26 -27
28 -14 2 -29 -2 -33 -7z"/>
<path d="M4045 2782 c-22 -15 -52 -45 -67 -67 -24 -35 -27 -50 -28 -118 0 -66
4 -83 25 -117 14 -22 44 -52 67 -67 35 -24 52 -28 108 -28 59 0 70 3 107 33
56 44 83 91 90 155 7 64 -7 112 -47 162 -42 53 -89 75 -157 75 -47 -1 -66 -6
-98 -28z"/>
<path d="M5405 2799 c-9 -13 -8 -1956 0 -1969 8 -12 284 -13 303 -1 11 6 13
98 12 462 l-1 454 48 36 c64 47 95 59 152 59 94 0 147 -40 199 -149 l27 -56 0
-405 0 -405 156 -3 c118 -2 158 1 165 10 5 8 7 188 3 423 -6 458 -7 471 -79
620 -68 139 -154 217 -281 255 -36 11 -86 20 -110 20 -52 0 -157 -29 -216 -59
-23 -11 -47 -21 -53 -21 -7 0 -10 117 -10 358 0 265 -3 361 -12 370 -16 16
-294 17 -303 1z"/>
<path d="M7842 2802 c-19 -12 -19 -1962 0 -1974 19 -11 246 -10 269 2 13 8 19
21 19 45 0 43 19 46 61 11 55 -46 134 -68 234 -64 78 3 100 7 155 35 202 101
319 337 320 647 0 207 -51 368 -155 491 -56 66 -109 102 -193 131 -109 38
-215 27 -343 -35 -23 -11 -46 -18 -50 -15 -5 3 -9 165 -9 359 0 340 -1 355
-19 365 -23 12 -270 13 -289 2z m610 -983 c81 -41 113 -133 113 -319 0 -125
-2 -140 -29 -205 -32 -79 -64 -118 -118 -146 -70 -36 -175 -15 -240 48 l-28
27 0 263 0 263 46 33 c59 41 139 68 184 61 19 -3 51 -14 72 -25z"/>
<path d="M4615 2378 c-3 -7 -6 -62 -7 -123 l-3 -110 -60 -3 c-42 -2 -64 -8
-72 -19 -14 -17 -19 -207 -7 -237 5 -12 20 -16 63 -16 31 0 62 -5 69 -12 9 -9
12 -93 12 -317 0 -460 16 -551 115 -647 66 -65 124 -84 257 -84 118 0 226 28
250 64 11 15 10 238 -1 254 -7 11 -15 11 -46 -2 -54 -23 -135 -30 -165 -14
-13 7 -38 33 -55 56 l-30 44 -3 308 c-3 225 -1 314 8 330 11 21 16 22 128 19
l117 -4 3 115 c4 172 13 160 -122 160 -90 0 -116 3 -126 15 -10 12 -11 41 -7
113 5 70 3 102 -5 110 -17 17 -307 17 -313 0z"/>
<path d="M3070 2130 c-56 -18 -81 -30 -135 -64 -36 -23 -155 -147 -155 -162 0
-6 -7 -24 -15 -41 -8 -16 -22 -64 -31 -106 -13 -63 -14 -90 -4 -148 11 -72 42
-161 67 -190 7 -8 13 -20 13 -25 0 -14 93 -104 121 -118 34 -17 34 -38 0 -74
-22 -24 -32 -48 -40 -98 -16 -90 -2 -158 44 -212 19 -22 35 -44 35 -50 0 -5
-19 -17 -42 -28 -104 -45 -178 -123 -205 -213 -20 -71 -13 -198 15 -261 40
-89 145 -168 276 -207 109 -32 408 -36 466 -6 14 7 32 13 41 13 34 0 110 42
163 91 37 34 65 72 87 117 30 63 32 74 33 187 1 134 -11 170 -76 231 -74 70
-149 102 -323 140 -138 29 -205 84 -205 167 0 35 6 49 31 75 18 18 43 35 58
38 135 27 213 66 292 145 78 78 114 147 137 265 14 72 14 93 3 146 -12 61 -12
63 10 78 12 8 39 20 58 25 l36 11 3 143 3 143 -28 -5 c-15 -3 -64 -15 -108
-26 -122 -31 -186 -36 -223 -17 -110 57 -289 73 -402 36z m275 -281 c59 -52
70 -82 70 -189 -1 -112 -15 -145 -79 -181 -57 -33 -156 -33 -209 0 -58 36 -77
83 -77 192 0 104 17 147 73 187 26 18 45 22 109 22 72 0 80 -2 113 -31z m85
-1202 c34 -17 51 -33 69 -70 21 -43 22 -52 11 -91 -14 -51 -59 -98 -109 -115
-19 -6 -80 -11 -137 -11 -87 0 -112 4 -156 24 -78 34 -92 54 -92 131 0 60 3
68 33 99 30 31 67 47 141 60 58 10 195 -5 240 -27z"/>
<path d="M3995 2130 c-3 -6 -6 -299 -7 -651 0 -531 2 -643 13 -650 22 -14 283
-11 297 3 9 9 12 166 12 644 0 348 -3 639 -6 648 -5 14 -28 16 -154 16 -89 0
-151 -4 -155 -10z"/>
<path d="M6619 2133 c0 -5 0 -192 1 -417 1 -353 4 -420 19 -495 52 -247 161
-371 351 -402 100 -16 228 16 308 77 39 30 52 24 52 -21 0 -24 6 -38 19 -45
26 -13 256 -13 282 0 18 10 19 28 19 648 0 483 -3 641 -12 650 -16 16 -304 17
-313 1 -4 -5 -6 -211 -6 -457 l2 -447 -28 -26 c-58 -53 -103 -73 -167 -73 -94
1 -136 29 -178 119 -23 50 -23 53 -23 470 l0 420 -162 3 c-90 1 -163 -1 -164
-5z"/>
<path d="M4019 611 c-37 -36 -39 -42 -39 -98 0 -72 19 -98 102 -137 75 -36 93
-57 89 -108 -1 -24 -41 -58 -67 -58 -12 0 -36 11 -52 25 -38 32 -66 32 -80 0
-10 -21 -8 -28 19 -54 83 -84 235 -51 267 57 16 54 15 87 -5 125 -20 39 -31
48 -109 87 -61 30 -74 44 -74 80 0 19 40 50 65 50 9 0 29 -7 45 -15 27 -14 30
-14 49 11 11 15 19 30 16 34 -12 20 -78 40 -130 40 -53 0 -60 -3 -96 -39z"/>
<path d="M4439 630 c-87 -46 -135 -144 -127 -260 7 -89 42 -154 108 -199 47
-32 55 -34 134 -34 78 0 88 2 135 32 72 46 102 102 108 202 5 61 2 89 -12 125
-22 58 -67 109 -116 135 -53 26 -179 26 -230 -1z m198 -96 c47 -36 63 -73 63
-146 0 -69 -15 -100 -65 -139 -37 -30 -117 -32 -158 -5 -31 21 -65 83 -73 137
-8 47 24 118 68 153 46 36 118 36 165 0z"/>
<path d="M4980 631 c-46 -25 -84 -63 -111 -114 -19 -34 -23 -57 -23 -127 0
-78 3 -89 33 -137 20 -32 51 -64 83 -84 47 -31 58 -33 127 -32 65 1 78 4 94
24 10 12 17 34 15 48 -3 28 -1 28 -99 15 -59 -7 -100 13 -134 66 -48 76 -29
194 40 252 30 25 95 32 137 15 26 -11 39 -12 47 -4 17 17 13 55 -9 77 -27 27
-149 28 -200 1z"/>
<path d="M5288 639 c-16 -9 -18 -32 -18 -249 l0 -240 24 -6 c14 -3 33 -4 43
-2 17 3 18 19 18 253 l0 250 -25 2 c-14 2 -33 -2 -42 -8z"/>
<path d="M5592 628 c-10 -21 -32 -75 -67 -168 -8 -19 -34 -87 -59 -151 -25
-64 -47 -127 -48 -140 -3 -22 1 -24 36 -24 37 0 41 3 65 50 l26 50 83 3 c48 2
89 -2 96 -7 7 -6 18 -29 25 -51 12 -41 37 -56 78 -48 22 5 21 45 -3 103 -19
47 -27 68 -89 240 -60 166 -56 159 -97 163 -27 2 -36 -2 -46 -20z m76 -220
c26 -76 18 -93 -41 -85 -21 3 -41 8 -44 11 -5 5 -1 24 24 119 2 9 12 17 22 17
13 0 24 -17 39 -62z"/>
<path d="M5920 640 c-12 -8 -16 -48 -18 -234 -2 -149 1 -232 8 -246 10 -18 20
-20 109 -20 112 0 133 10 113 55 -10 22 -18 25 -66 25 -32 0 -58 5 -65 13 -7
9 -12 86 -13 213 l-3 199 -25 3 c-14 1 -32 -2 -40 -8z"/>
<path d="M6489 630 c-148 -78 -185 -297 -70 -418 57 -60 94 -75 180 -75 66 0
76 2 93 23 11 13 18 35 16 49 -2 21 -8 25 -28 23 -14 -1 -47 -5 -75 -8 -63 -7
-110 21 -142 86 -40 78 -24 158 47 225 32 31 55 34 165 23 26 -3 30 1 33 24 2
17 -4 34 -17 47 -29 29 -149 29 -202 1z"/>
<path d="M6875 618 c-93 -62 -126 -148 -110 -283 9 -66 46 -122 113 -169 39
-28 49 -30 126 -30 90 1 123 14 180 71 66 65 88 211 47 304 -42 94 -115 139
-228 139 -71 0 -83 -3 -128 -32z m212 -84 c50 -38 77 -97 70 -157 -7 -55 -37
-110 -75 -135 -15 -10 -45 -16 -77 -16 -90 0 -144 62 -145 168 0 100 56 165
144 166 38 0 57 -6 83 -26z"/>
<path d="M7332 642 c-10 -7 -13 -61 -12 -247 0 -131 3 -242 6 -246 3 -5 41 -9
84 -9 100 0 170 28 222 89 56 66 72 143 48 241 -16 67 -84 139 -150 159 -56
16 -181 25 -198 13z m187 -102 c42 -21 70 -68 78 -129 7 -54 -25 -131 -66
-158 -41 -28 -115 -32 -125 -7 -3 9 -6 76 -6 149 0 73 3 140 6 149 9 22 66 20
113 -4z"/>
<path d="M7760 631 c-11 -21 -15 -447 -4 -475 6 -16 39 -21 68 -10 14 5 16 36
16 245 0 225 -1 239 -19 249 -29 15 -49 12 -61 -9z"/>
<path d="M7930 631 c-6 -12 -10 -109 -10 -244 0 -245 1 -252 57 -245 l28 3 3
158 c2 144 4 157 21 157 12 0 57 -53 132 -152 62 -84 118 -156 124 -161 5 -4
24 -6 40 -5 l30 3 3 239 c3 251 0 266 -42 266 -42 0 -46 -16 -46 -171 0 -81
-4 -150 -8 -153 -9 -5 -43 27 -78 75 -46 63 -147 196 -167 221 -27 33 -71 37
-87 9z"/>
<path d="M8548 630 c-143 -76 -173 -305 -55 -428 49 -52 83 -65 162 -65 95 0
147 29 193 107 16 27 24 58 25 95 l2 56 -100 0 c-95 0 -100 -1 -103 -22 -4
-25 20 -41 61 -41 64 1 57 -53 -12 -99 -67 -45 -146 -17 -188 67 -45 88 -18
203 59 253 23 15 53 27 65 27 30 0 72 -21 97 -49 22 -24 43 -26 69 -7 36 28
12 74 -60 110 -46 23 -167 21 -215 -4z"/>
</g>
</svg>
