<?xml version="1.0" standalone="no"?>
<!DOCTYPE svg PUBLIC "-//W3C//DTD SVG 20010904//EN"
 "http://www.w3.org/TR/2001/REC-SVG-20010904/DTD/svg10.dtd">
<svg version="1.0" xmlns="http://www.w3.org/2000/svg"
 width="206.000000pt" height="245.000000pt" viewBox="0 0 206.000000 245.000000"
 preserveAspectRatio="xMidYMid meet">

<g transform="translate(0.000000,245.000000) scale(0.100000,-0.100000)"
fill="#000000" stroke="none">
<path d="M224 1805 c2 -5 28 -50 59 -99 l55 -89 -55 -91 c-30 -50 -57 -94 -60
-98 -2 -5 22 -8 54 -8 l58 0 58 94 c31 52 57 98 57 103 0 4 -27 50 -59 102
l-58 93 -57 2 c-34 0 -55 -3 -52 -9z"/>
<path d="M754 1785 c-15 -23 -15 -27 0 -50 21 -31 70 -35 86 -6 16 31 12 41
-15 41 -14 0 -25 -4 -25 -10 0 -5 7 -10 15 -10 8 0 15 -4 15 -9 0 -15 -30 -21
-51 -11 -38 21 -12 79 31 65 11 -4 20 -2 20 4 0 6 -13 11 -30 11 -20 0 -35 -8
-46 -25z"/>
<path d="M1080 1760 c0 -27 5 -50 10 -50 6 0 10 23 10 50 0 28 -4 50 -10 50
-5 0 -10 -22 -10 -50z"/>
<path d="M1220 1755 c0 -40 2 -45 23 -45 29 0 47 18 47 45 0 27 -18 45 -47 45
-21 0 -23 -5 -23 -45z m57 19 c8 -20 -8 -48 -31 -52 -12 -3 -16 4 -16 32 0 30
4 36 20 36 11 0 23 -7 27 -16z"/>
<path d="M1500 1774 c0 -23 -1 -24 -16 -9 -18 18 -33 16 -47 -7 -15 -23 -1
-48 28 -48 14 0 25 4 25 9 0 5 -9 7 -20 4 -11 -3 -20 0 -20 6 0 6 11 11 25 11
16 0 25 -6 25 -15 0 -8 5 -15 10 -15 6 0 10 8 10 18 1 16 1 16 11 0 13 -23 48
-23 56 -2 7 18 -6 45 -24 51 -6 2 -18 -3 -27 -12 -15 -15 -16 -14 -16 9 0 14
-4 26 -10 26 -5 0 -10 -12 -10 -26z m-23 -20 c-3 -3 -12 -4 -19 -1 -8 3 -5 6
6 6 11 1 17 -2 13 -5z m98 -14 c0 -8 -8 -16 -17 -18 -13 -2 -18 3 -18 18 0 15
5 20 18 18 9 -2 17 -10 17 -18z"/>
<path d="M872 1771 c-8 -4 -12 -19 -10 -32 4 -34 52 -34 56 0 3 20 -11 41 -28
41 -3 0 -11 -4 -18 -9z m34 -22 c10 -17 -13 -36 -27 -22 -12 12 -4 33 11 33 5
0 12 -5 16 -11z"/>
<path d="M940 1765 c-20 -25 -8 -50 25 -50 21 0 31 5 33 18 4 21 -14 47 -33
47 -7 0 -18 -7 -25 -15z m40 -26 c0 -24 -23 -21 -28 4 -2 10 3 17 12 17 10 0
16 -9 16 -21z"/>
<path d="M1020 1765 c-18 -21 -8 -48 20 -55 15 -4 20 -9 13 -13 -6 -4 -19 -4
-30 -1 -14 5 -15 4 -7 -5 7 -7 20 -11 30 -9 15 2 20 14 22 48 3 39 0 46 -17
47 -11 1 -25 -5 -31 -12z m36 -16 c10 -17 -13 -36 -27 -22 -12 12 -4 33 11 33
5 0 12 -5 16 -11z"/>
<path d="M1120 1765 c-26 -32 15 -75 44 -45 8 10 5 11 -14 5 l-25 -6 23 18
c18 15 20 21 10 31 -16 16 -23 15 -38 -3z"/>
<path d="M1310 1765 c-26 -31 14 -75 43 -46 7 7 4 8 -10 5 -12 -3 -24 -1 -27
5 -5 7 3 11 18 11 29 0 36 24 10 34 -21 8 -20 8 -34 -9z m37 -11 c-3 -3 -12
-4 -19 -1 -8 3 -5 6 6 6 11 1 17 -2 13 -5z"/>
<path d="M1371 1773 c-1 -18 18 -63 27 -63 4 0 13 14 19 30 6 17 7 30 3 30 -5
0 -12 -10 -16 -22 -6 -21 -7 -20 -19 8 -8 16 -14 24 -14 17z"/>
<path d="M1618 1772 c-14 -3 -18 -13 -17 -50 1 -26 3 -39 6 -30 2 9 14 18 26
20 13 2 23 11 25 24 4 25 -16 42 -40 36z m32 -26 c0 -20 -19 -31 -32 -18 -6 6
-7 15 -4 21 10 16 36 13 36 -3z"/>
<path d="M1680 1765 c-19 -23 -8 -50 23 -53 15 -2 27 1 27 6 0 6 -8 8 -19 5
-10 -3 -22 0 -25 6 -5 7 3 11 18 11 29 0 36 24 10 34 -21 8 -20 8 -34 -9z m37
-11 c-3 -3 -12 -4 -19 -1 -8 3 -5 6 6 6 11 1 17 -2 13 -5z"/>
<path d="M1758 1772 c-19 -4 -26 -62 -8 -62 6 0 10 11 10 24 0 13 6 26 13 29
17 6 5 14 -15 9z"/>
<path d="M1797 1773 c-12 -12 -7 -33 7 -33 8 0 18 -5 22 -12 5 -8 0 -9 -14 -6
-12 4 -22 2 -22 -4 0 -14 43 -5 48 10 2 6 -7 16 -20 21 l-23 10 25 1 c20 0 22
2 10 10 -18 12 -24 12 -33 3z"/>
<path d="M476 1610 c-31 -49 -56 -97 -56 -106 0 -18 40 -94 49 -94 7 0 61 84
61 94 0 3 25 46 55 95 30 49 55 92 55 95 0 3 -24 6 -54 6 l-55 0 -55 -90z"/>
<path d="M750 1540 l0 -120 75 0 c43 0 75 4 75 10 0 6 -27 10 -60 10 l-60 0 0
45 0 45 55 0 c30 0 55 5 55 10 0 6 -25 10 -55 10 l-55 0 0 40 0 40 60 0 c47 0
60 3 60 15 0 12 -15 15 -75 15 l-75 0 0 -120z"/>
<path d="M1610 1616 c0 -16 -6 -26 -15 -26 -8 0 -15 -4 -15 -10 0 -5 7 -10 15
-10 12 0 15 -14 15 -64 0 -68 17 -100 48 -94 21 4 28 28 8 28 -13 0 -16 12
-16 65 0 51 3 65 15 65 8 0 15 5 15 10 0 6 -6 10 -14 10 -8 0 -16 10 -18 22
-5 34 -38 37 -38 4z"/>
<path d="M1170 1590 c-8 -5 -25 -7 -37 -3 -23 5 -23 5 -23 -116 0 -114 1 -121
20 -121 17 0 20 7 20 40 0 39 1 39 25 28 22 -10 30 -8 53 9 22 16 28 29 30 71
3 44 -1 56 -22 77 -27 27 -42 30 -66 15z m44 -36 c19 -19 21 -74 3 -98 -8 -11
-23 -17 -38 -14 -21 3 -24 9 -27 52 -2 27 -1 55 2 62 7 19 41 18 60 -2z"/>
<path d="M1319 1571 c-21 -22 -29 -39 -29 -66 0 -27 8 -44 29 -66 31 -30 59
-36 92 -19 32 17 22 32 -16 24 -40 -7 -65 7 -65 37 0 16 8 19 55 19 52 0 55 1
55 25 0 31 -41 75 -70 75 -12 0 -35 -13 -51 -29z m80 -20 c13 -24 5 -31 -36
-31 -34 0 -43 16 -21 38 18 18 46 15 57 -7z"/>
<path d="M1532 1591 c-7 -4 -23 -6 -35 -4 -21 4 -22 1 -22 -81 0 -74 2 -86 17
-86 14 0 18 12 20 68 3 61 5 67 26 70 14 2 22 10 22 23 0 21 -8 23 -28 10z"/>
<path d="M1725 1576 c-24 -25 -26 -29 -13 -48 8 -12 34 -28 57 -36 30 -10 41
-19 39 -31 -4 -21 -51 -26 -68 -7 -14 17 -40 22 -40 7 0 -16 30 -41 58 -48 51
-13 103 44 73 81 -6 7 -29 18 -52 25 -29 9 -39 17 -37 29 4 22 41 27 58 7 13
-16 40 -21 40 -7 0 19 -27 42 -57 48 -26 5 -37 1 -58 -20z"/>
<path d="M955 1553 c14 -21 25 -42 25 -48 0 -6 -11 -27 -25 -48 -25 -35 -25
-37 -6 -37 13 0 27 12 37 32 l16 31 20 -31 c11 -18 28 -32 39 -32 18 0 17 4
-10 43 l-30 44 25 36 c28 42 29 47 9 47 -8 0 -24 -14 -34 -31 l-19 -31 -16 31
c-10 19 -24 31 -37 31 -19 0 -19 -2 6 -37z"/>
<path d="M1480 1330 c-9 -16 -8 -20 5 -20 8 0 15 5 15 10 0 13 27 13 35 1 3
-6 -8 -25 -25 -44 -40 -46 -38 -57 10 -57 22 0 40 5 40 10 0 6 -12 10 -26 10
l-26 0 26 31 c14 17 26 36 26 43 0 37 -62 49 -80 16z"/>
<path d="M1584 1336 c-11 -28 1 -99 19 -110 38 -24 69 35 53 100 -5 19 -13 24
-37 24 -16 0 -32 -6 -35 -14z m51 -51 c0 -30 -4 -41 -17 -43 -15 -3 -18 4 -18
43 0 39 3 46 18 43 13 -2 17 -13 17 -43z"/>
<path d="M1680 1340 c0 -5 5 -10 10 -10 6 0 10 -25 10 -55 0 -42 3 -55 15 -55
12 0 15 14 15 65 0 63 -1 65 -25 65 -14 0 -25 -4 -25 -10z"/>
<path d="M1764 1335 c-4 -8 -3 -22 0 -30 3 -9 0 -24 -6 -35 -23 -36 38 -70 70
-38 15 15 16 48 2 48 -6 0 -5 8 2 19 9 15 9 23 -1 35 -17 20 -60 21 -67 1z
m46 -20 c0 -8 -7 -15 -15 -15 -8 0 -15 7 -15 15 0 8 7 15 15 15 8 0 15 -7 15
-15z m5 -56 c0 -7 -8 -15 -17 -17 -18 -3 -25 18 -11 32 10 10 28 1 28 -15z"/>
<path d="M0 929 c0 -247 3 -315 14 -337 21 -41 967 -586 1016 -585 28 0 137
59 519 279 325 188 488 288 497 304 10 19 13 75 14 221 l0 196 -52 6 c-29 3
-478 53 -998 111 -520 58 -960 107 -977 110 l-33 5 0 -310z m730 -133 l0 -84
-41 2 c-45 2 -59 16 -59 62 0 36 16 54 47 54 18 0 23 6 23 25 0 16 6 25 15 25
12 0 15 -16 15 -84z m788 72 c-6 -18 -28 -21 -28 -4 0 9 7 16 16 16 9 0 14 -5
12 -12z m-1114 -14 c33 -32 5 -84 -46 -84 -25 0 -28 -4 -28 -31 0 -20 -4 -29
-12 -27 -9 3 -14 31 -16 81 l-3 77 45 0 c27 0 51 -6 60 -16z m816 -4 c13 -13
20 -33 20 -59 0 -48 -35 -81 -86 -81 l-34 0 0 80 0 80 40 0 c27 0 47 -7 60
-20z m-190 -4 c0 -8 6 -17 13 -20 10 -5 10 -7 0 -12 -16 -7 -17 -70 -2 -80 16
-10 -6 -28 -25 -21 -11 5 -16 20 -16 51 0 26 -5 47 -12 50 -10 5 -10 7 0 12 6
3 12 12 12 20 0 8 7 14 15 14 8 0 15 -6 15 -14z m-530 -26 c0 -5 -6 -13 -14
-17 -8 -4 -16 -26 -18 -47 -2 -22 -9 -41 -15 -44 -10 -3 -13 13 -13 57 l0 61
30 0 c17 0 30 -4 30 -10z m106 -15 c35 -53 -29 -122 -76 -80 -22 20 -27 74 -8
93 21 21 66 14 84 -13z m176 -17 c2 -31 8 -44 21 -46 14 -3 17 4 17 42 0 34 4
46 15 46 12 0 15 -13 15 -58 l0 -58 -35 -1 c-43 -1 -65 25 -65 79 0 56 28 52
32 -4z m172 36 c20 -8 21 -34 1 -34 -8 0 -15 5 -15 10 0 22 -30 9 -36 -16 -9
-34 10 -53 36 -36 25 16 30 15 30 -3 0 -14 -29 -35 -49 -35 -20 0 -51 40 -51
64 0 43 40 67 84 50z m396 -13 c19 -37 12 -51 -25 -51 -19 0 -35 -4 -35 -10 0
-5 14 -10 30 -10 32 0 40 -14 14 -24 -25 -10 -42 -7 -58 10 -19 18 -21 75 -4
92 19 19 66 15 78 -7z m107 4 c7 -21 -4 -32 -19 -17 -7 7 -18 12 -25 12 -24 0
-14 -16 19 -31 17 -8 33 -19 35 -25 5 -16 -25 -44 -46 -44 -25 0 -55 25 -47
39 6 9 11 9 21 1 8 -7 22 -10 32 -8 13 3 8 9 -19 21 -39 16 -47 34 -26 55 17
17 67 15 75 -3z m61 -42 c-4 -81 -28 -85 -28 -4 0 48 3 61 15 61 13 0 15 -11
13 -57z m122 -12 c0 -47 -4 -72 -14 -80 -19 -16 -68 -10 -74 7 -3 9 3 13 14
12 31 -4 44 -1 44 10 0 5 -6 7 -14 4 -29 -11 -56 15 -56 54 0 48 14 62 62 62
l38 0 0 -69z m118 5 c2 -44 0 -57 -10 -54 -8 3 -14 24 -16 52 -3 38 -6 47 -20
44 -13 -2 -18 -16 -20 -51 -2 -33 -7 -47 -18 -47 -11 0 -14 14 -14 59 l0 60
48 -2 47 -2 3 -59z"/>
<path d="M664 796 c-9 -24 0 -51 19 -54 15 -3 18 2 15 29 -3 35 -24 51 -34 25z"/>
<path d="M330 825 c0 -20 5 -25 25 -25 29 0 45 28 24 41 -27 17 -49 10 -49
-16z"/>
<path d="M1150 795 c0 -46 3 -55 18 -55 27 0 42 20 42 57 0 22 -6 36 -19 43
-35 18 -41 12 -41 -45z"/>
<path d="M547 803 c-4 -3 -7 -19 -7 -35 0 -21 5 -28 19 -28 24 0 34 25 21 51
-11 20 -22 24 -33 12z"/>
<path d="M1295 800 c-3 -5 3 -10 15 -10 12 0 18 5 15 10 -3 6 -10 10 -15 10
-5 0 -12 -4 -15 -10z"/>
<path d="M1577 804 c-4 -4 -7 -20 -7 -36 0 -22 5 -28 21 -28 17 0 20 5 17 32
-3 31 -17 45 -31 32z"/>
</g>
</svg>
