<?xml version="1.0" standalone="no"?>
<!DOCTYPE svg PUBLIC "-//W3C//DTD SVG 20010904//EN"
 "http://www.w3.org/TR/2001/REC-SVG-20010904/DTD/svg10.dtd">
<svg version="1.0" xmlns="http://www.w3.org/2000/svg"
 width="300.000000pt" height="117.000000pt" viewBox="0 0 300.000000 117.000000"
 preserveAspectRatio="xMidYMid meet">
<metadata>
Created by potrace 1.10, written by Peter Selinger 2001-2011
</metadata>
<g transform="translate(0.000000,117.000000) scale(0.050000,-0.050000)"
fill="#1f9059" stroke="none">
<path d="M990 1943 c-605 -160 -809 -887 -372 -1325 624 -623 1622 90 1253
895 -140 306 -565 513 -881 430z m334 -175 c72 -32 111 -81 84 -106 -8 -7 -17
-1 -22 13 -10 27 -66 35 -66 10 0 -8 -72 -12 -160 -8 -169 6 -187 18 -115 71
25 19 34 28 20 22 -14 -7 -25 -5 -25 4 0 33 208 28 284 -6z m40 -259 c286 -60
439 -163 355 -240 -39 -35 -44 -34 -154 17 -208 96 -430 126 -675 92 -229 -32
-232 -32 -257 7 -83 128 358 203 731 124z m94 -322 c168 -65 210 -108 157
-160 -32 -33 -39 -32 -126 11 -196 98 -478 131 -682 79 -74 -19 -95 -17 -119
7 -148 147 431 195 770 63z m-215 -196 c151 -32 297 -99 297 -137 0 -64 -44
-70 -152 -20 -173 79 -401 94 -629 41 -34 -8 -72 60 -48 84 54 54 347 71 532
32z m-41 -259 c-13 -15 1 -23 43 -26 34 -3 68 -15 76 -27 7 -12 19 -22 26 -21
40 6 53 -1 53 -27 0 -18 -12 -25 -30 -18 -16 6 -30 2 -30 -9 0 -33 -163 -46
-280 -23 -60 13 -121 23 -135 24 -14 1 -25 10 -25 20 0 9 -10 11 -23 3 -14 -8
-18 -5 -10 8 8 11 4 27 -7 34 -29 18 -2 55 32 42 15 -6 27 -4 25 4 -6 40 15
46 153 42 107 -3 145 -10 132 -26z"/>
<path d="M942 733 c23 -21 158 -33 158 -14 0 12 -37 21 -83 21 -46 0 -80 -3
-75 -7z"/>
<path d="M4404 1576 c-33 -33 -30 -106 6 -136 75 -62 192 55 130 130 -30 36
-103 39 -136 6z"/>
<path d="M4701 1507 c-22 -29 -41 -74 -41 -100 0 -28 -12 -47 -30 -47 -20 0
-30 -20 -30 -60 0 -40 10 -60 30 -60 25 0 30 -38 30 -220 l0 -220 70 0 70 0 0
220 0 220 56 0 c52 0 62 -14 142 -210 96 -233 96 -282 1 -263 -51 10 -64 4
-83 -39 -29 -62 0 -87 100 -88 133 0 153 25 281 362 44 114 94 242 112 283
l32 75 -78 0 -78 0 -54 -175 c-62 -198 -81 -229 -101 -162 -8 26 -37 113 -65
194 l-52 148 -108 -11 c-102 -11 -107 -9 -101 32 4 33 22 46 71 50 57 6 65 14
65 65 0 85 -173 90 -239 6z"/>
<path d="M2348 1512 c-224 -101 -164 -330 107 -411 153 -45 187 -83 131 -146
-46 -50 -176 -39 -263 23 l-60 42 -41 -52 c-50 -64 -46 -72 68 -126 228 -107
449 -22 450 174 0 104 -55 165 -184 202 -167 47 -196 64 -196 115 0 88 134
101 256 25 45 -28 102 14 103 76 2 72 -263 128 -371 78z"/>
<path d="M4060 1430 c0 -49 -9 -70 -30 -70 -20 0 -30 -20 -30 -60 0 -40 10
-60 30 -60 24 0 30 -33 30 -180 0 -235 78 -313 248 -248 67 26 40 124 -33 121
l-65 -3 -6 155 -6 155 71 0 c66 0 71 5 71 60 0 55 -6 60 -70 60 -67 0 -70 3
-70 70 0 67 -3 70 -70 70 -67 0 -70 -3 -70 -70z"/>
<path d="M2800 1000 l0 -360 70 0 70 0 0 111 c0 111 0 111 44 80 129 -90 335
9 367 175 46 247 -175 444 -362 322 -45 -30 -49 -30 -49 0 0 23 -19 32 -70 32
l-70 0 0 -360z m374 197 c99 -94 38 -277 -94 -277 -86 0 -140 62 -140 160 0
144 133 211 234 117z"/>
<path d="M3568 1341 c-131 -54 -196 -232 -135 -377 89 -215 400 -230 510 -24
128 240 -118 504 -375 401z m219 -142 c111 -87 43 -279 -99 -279 -132 0 -196
174 -99 271 60 60 128 63 198 8z"/>
<path d="M4400 1080 l0 -280 70 0 70 0 0 280 0 280 -70 0 -70 0 0 -280z"/>
<path d="M5470 1340 c-7 -11 -3 -20 9 -20 11 0 21 -23 21 -52 0 -40 -8 -49
-33 -40 -27 11 -29 8 -7 -18 53 -64 160 -24 160 60 0 75 -114 128 -150 70z"/>
</g>
</svg>
